REM DIRINDEX 1\2,1\4,1\5,1\6,1\7,1\3\8,1\3\9,1\3\10
REM DIRNAME folder01,folder02,folder03,folder04,folder05,folder06,folder07,folder08,folder09,folder10
TITLE ""
FILE "DB4500_5th_MK_04.mp3" MP3
  TRACK 01 AUDIO
    TITLE "6:cjc113_6695"
    INDEX 01 00:00:00
  TRACK 02 AUDIO
    TITLE "0:"
    INDEX 01 00:01:21
  TRACK 03 AUDIO
    TITLE "6:cjc113_6696"
    INDEX 01 00:01:26
  TRACK 04 AUDIO
    TITLE "0:"
    INDEX 01 00:03:41
  TRACK 05 AUDIO
    TITLE "6:cjc113_6697"
    INDEX 01 00:04:07
  TRACK 06 AUDIO
    TITLE "0:"
    INDEX 01 00:05:36
  TRACK 07 AUDIO
    TITLE "6:cjc113_6698"
    INDEX 01 00:05:42
  TRACK 08 AUDIO
    TITLE "0:"
    INDEX 01 00:06:59
  TRACK 09 AUDIO
    TITLE "6:cjc113_6699"
    INDEX 01 00:07:27
  TRACK 10 AUDIO
    TITLE "0:"
    INDEX 01 00:08:54
  TRACK 11 AUDIO
    TITLE "6:cjc113_6700"
    INDEX 01 00:08:60
  TRACK 12 AUDIO
    TITLE "0:"
    INDEX 01 00:10:08
  TRACK 13 AUDIO
    TITLE "6:cjc113_6701"
    INDEX 01 00:10:45
  TRACK 14 AUDIO
    TITLE "0:"
    INDEX 01 00:12:09
  TRACK 15 AUDIO
    TITLE "6:cjc113_6702"
    INDEX 01 00:12:16
  TRACK 16 AUDIO
    TITLE "0:"
    INDEX 01 00:14:21
  TRACK 17 AUDIO
    TITLE "6:cjc113_6703"
    INDEX 01 00:14:62
  TRACK 18 AUDIO
    TITLE "0:"
    INDEX 01 00:16:18
  TRACK 19 AUDIO
    TITLE "6:cjc113_6704"
    INDEX 01 00:16:24
  TRACK 20 AUDIO
    TITLE "0:"
    INDEX 01 00:19:44
  TRACK 21 AUDIO
    TITLE "6:cjc113_6705"
    INDEX 01 00:20:12
  TRACK 22 AUDIO
    TITLE "0:"
    INDEX 01 00:21:57
  TRACK 23 AUDIO
    TITLE "6:cjc113_6706"
    INDEX 01 00:21:62
  TRACK 24 AUDIO
    TITLE "0:"
    INDEX 01 00:24:41
  TRACK 25 AUDIO
    TITLE "6:cjc113_6707"
    INDEX 01 00:25:07
  TRACK 26 AUDIO
    TITLE "0:"
    INDEX 01 00:27:12
  TRACK 27 AUDIO
    TITLE "6:cjc113_6708"
    INDEX 01 00:27:20
  TRACK 28 AUDIO
    TITLE "0:"
    INDEX 01 00:29:60
  TRACK 29 AUDIO
    TITLE "6:cjc113_6709"
    INDEX 01 00:30:24
  TRACK 30 AUDIO
    TITLE "0:"
    INDEX 01 00:32:27
  TRACK 31 AUDIO
    TITLE "6:cjc113_6710"
    INDEX 01 00:32:35
  TRACK 32 AUDIO
    TITLE "0:"
    INDEX 01 00:35:08
  TRACK 33 AUDIO
    TITLE "6:cjc113_6711"
    INDEX 01 00:35:45
  TRACK 34 AUDIO
    TITLE "0:"
    INDEX 01 00:39:05
  TRACK 35 AUDIO
    TITLE "6:cjc113_6712"
    INDEX 01 00:39:15
  TRACK 36 AUDIO
    TITLE "0:"
    INDEX 01 00:43:60
  TRACK 37 AUDIO
    TITLE "6:cjc113_6713"
    INDEX 01 00:44:24
  TRACK 38 AUDIO
    TITLE "0:"
    INDEX 01 00:45:65
  TRACK 39 AUDIO
    TITLE "6:cjc113_6714"
    INDEX 01 00:45:73
  TRACK 40 AUDIO
    TITLE "0:"
    INDEX 01 00:47:62
  TRACK 41 AUDIO
    TITLE "6:cjc113_6715"
    INDEX 01 00:48:28
  TRACK 42 AUDIO
    TITLE "0:"
    INDEX 01 00:49:57
  TRACK 43 AUDIO
    TITLE "6:cjc113_6716"
    INDEX 01 00:49:65
  TRACK 44 AUDIO
    TITLE "0:"
    INDEX 01 00:51:65
  TRACK 45 AUDIO
    TITLE "6:cjc113_6717"
    INDEX 01 00:52:32
  TRACK 46 AUDIO
    TITLE "0:"
    INDEX 01 00:53:35
  TRACK 47 AUDIO
    TITLE "6:cjc113_6718"
    INDEX 01 00:53:45
  TRACK 48 AUDIO
    TITLE "0:"
    INDEX 01 00:54:60
  TRACK 49 AUDIO
    TITLE "6:cjc113_6719"
    INDEX 01 00:55:24
  TRACK 50 AUDIO
    TITLE "0:"
    INDEX 01 00:56:41
  TRACK 51 AUDIO
    TITLE "6:cjc113_6720"
    INDEX 01 00:56:49
  TRACK 52 AUDIO
    TITLE "0:"
    INDEX 01 00:57:72
  TRACK 53 AUDIO
    TITLE "6:cjc113_6721"
    INDEX 01 00:58:34
  TRACK 54 AUDIO
    TITLE "0:"
    INDEX 01 01:00:00
  TRACK 55 AUDIO
    TITLE "6:cjc113_6722"
    INDEX 01 01:00:06
  TRACK 56 AUDIO
    TITLE "0:"
    INDEX 01 01:01:56
  TRACK 57 AUDIO
    TITLE "6:cjc113_6723"
    INDEX 01 01:02:22
  TRACK 58 AUDIO
    TITLE "0:"
    INDEX 01 01:03:31
  TRACK 59 AUDIO
    TITLE "6:cjc113_6724"
    INDEX 01 01:03:39
  TRACK 60 AUDIO
    TITLE "0:"
    INDEX 01 01:04:60
  TRACK 61 AUDIO
    TITLE "6:cjc113_6725"
    INDEX 01 01:05:26
  TRACK 62 AUDIO
    TITLE "0:"
    INDEX 01 01:06:24
  TRACK 63 AUDIO
    TITLE "6:cjc113_6726"
    INDEX 01 01:06:30
  TRACK 64 AUDIO
    TITLE "0:"
    INDEX 01 01:08:21
  TRACK 65 AUDIO
    TITLE "6:cjc113_6727"
    INDEX 01 01:08:64
  TRACK 66 AUDIO
    TITLE "0:"
    INDEX 01 01:09:65
  TRACK 67 AUDIO
    TITLE "6:cjc113_6728"
    INDEX 01 01:10:00
  TRACK 68 AUDIO
    TITLE "0:"
    INDEX 01 01:11:02
  TRACK 69 AUDIO
    TITLE "6:cjc113_6729"
    INDEX 01 01:11:43
  TRACK 70 AUDIO
    TITLE "0:"
    INDEX 01 01:12:48
  TRACK 71 AUDIO
    TITLE "6:cjc113_6730"
    INDEX 01 01:12:58
  TRACK 72 AUDIO
    TITLE "0:"
    INDEX 01 01:13:63
  TRACK 73 AUDIO
    TITLE "6:cjc113_6731"
    INDEX 01 01:14:33
  TRACK 74 AUDIO
    TITLE "0:"
    INDEX 01 01:15:62
  TRACK 75 AUDIO
    TITLE "6:cjc113_6732"
    INDEX 01 01:15:68
  TRACK 76 AUDIO
    TITLE "0:"
    INDEX 01 01:17:20
  TRACK 77 AUDIO
    TITLE "6:cjc113_6733"
    INDEX 01 01:17:59
  TRACK 78 AUDIO
    TITLE "0:"
    INDEX 01 01:19:05
  TRACK 79 AUDIO
    TITLE "6:cjc113_6734"
    INDEX 01 01:19:13
  TRACK 80 AUDIO
    TITLE "0:"
    INDEX 01 01:20:30
  TRACK 81 AUDIO
    TITLE "6:cjc113_6735"
    INDEX 01 01:20:73
  TRACK 82 AUDIO
    TITLE "0:"
    INDEX 01 01:22:09
  TRACK 83 AUDIO
    TITLE "6:cjc113_6736"
    INDEX 01 01:22:17
  TRACK 84 AUDIO
    TITLE "0:"
    INDEX 01 01:23:50
  TRACK 85 AUDIO
    TITLE "6:cjc113_6737"
    INDEX 01 01:24:20
  TRACK 86 AUDIO
    TITLE "0:"
    INDEX 01 01:25:29
  TRACK 87 AUDIO
    TITLE "6:cjc113_6738"
    INDEX 01 01:25:37
  TRACK 88 AUDIO
    TITLE "0:"
    INDEX 01 01:26:54
  TRACK 89 AUDIO
    TITLE "6:cjc113_6739"
    INDEX 01 01:27:22
  TRACK 90 AUDIO
    TITLE "0:"
    INDEX 01 01:28:41
  TRACK 91 AUDIO
    TITLE "6:cjc113_6740"
    INDEX 01 01:28:47
  TRACK 92 AUDIO
    TITLE "0:"
    INDEX 01 01:30:11
  TRACK 93 AUDIO
    TITLE "6:cjc113_6741"
    INDEX 01 01:30:52
  TRACK 94 AUDIO
    TITLE "0:"
    INDEX 01 01:32:02
  TRACK 95 AUDIO
    TITLE "6:cjc113_6742"
    INDEX 01 01:32:12
  TRACK 96 AUDIO
    TITLE "0:"
    INDEX 01 01:33:50
  TRACK 97 AUDIO
    TITLE "6:cjc113_6743"
    INDEX 01 01:34:14
  TRACK 98 AUDIO
    TITLE "0:"
    INDEX 01 01:35:39
  TRACK 99 AUDIO
    TITLE "6:cjc113_6744"
    INDEX 01 01:35:45
  TRACK 100 AUDIO
    TITLE "0:"
    INDEX 01 01:37:09
  TRACK 101 AUDIO
    TITLE "6:cjc113_6745"
    INDEX 01 01:37:50
  TRACK 102 AUDIO
    TITLE "0:"
    INDEX 01 01:38:65
  TRACK 103 AUDIO
    TITLE "6:cjc113_6746"
    INDEX 01 01:38:73
  TRACK 104 AUDIO
    TITLE "0:"
    INDEX 01 01:41:26
  TRACK 105 AUDIO
    TITLE "6:cjc113_6747"
    INDEX 01 01:41:67
  TRACK 106 AUDIO
    TITLE "0:"
    INDEX 01 01:43:15
  TRACK 107 AUDIO
    TITLE "6:cjc113_6748"
    INDEX 01 01:43:21
  TRACK 108 AUDIO
    TITLE "0:"
    INDEX 01 01:44:50
  TRACK 109 AUDIO
    TITLE "6:cjc113_6749"
    INDEX 01 01:45:16
  TRACK 110 AUDIO
    TITLE "0:"
    INDEX 01 01:46:59
  TRACK 111 AUDIO
    TITLE "6:cjc113_6750"
    INDEX 01 01:46:66
  TRACK 112 AUDIO
    TITLE "0:"
    INDEX 01 01:49:00
  TRACK 113 AUDIO
    TITLE "6:cjc113_6751"
    INDEX 01 01:49:43
  TRACK 114 AUDIO
    TITLE "0:"
    INDEX 01 01:50:47
  TRACK 115 AUDIO
    TITLE "6:cjc113_6752"
    INDEX 01 01:50:54
  TRACK 116 AUDIO
    TITLE "0:"
    INDEX 01 01:53:35
  TRACK 117 AUDIO
    TITLE "6:cjc113_6753"
    INDEX 01 01:54:03
  TRACK 118 AUDIO
    TITLE "0:"
    INDEX 01 01:55:16
  TRACK 119 AUDIO
    TITLE "6:cjc113_6754"
    INDEX 01 01:55:22
  TRACK 120 AUDIO
    TITLE "0:"
    INDEX 01 01:56:26
  TRACK 121 AUDIO
    TITLE "6:cjc113_6755"
    INDEX 01 01:56:71
  TRACK 122 AUDIO
    TITLE "0:"
    INDEX 01 01:57:72
  TRACK 123 AUDIO
    TITLE "6:cjc113_6756"
    INDEX 01 01:58:03
  TRACK 124 AUDIO
    TITLE "0:"
    INDEX 01 01:59:14
  TRACK 125 AUDIO
    TITLE "6:cjc113_6757"
    INDEX 01 01:59:57
  TRACK 126 AUDIO
    TITLE "0:"
    INDEX 01 02:00:65
  TRACK 127 AUDIO
    TITLE "6:cjc113_6758"
    INDEX 01 02:00:71
  TRACK 128 AUDIO
    TITLE "0:"
    INDEX 01 02:02:26
  TRACK 129 AUDIO
    TITLE "6:cjc113_6759"
    INDEX 01 02:02:69
  TRACK 130 AUDIO
    TITLE "0:"
    INDEX 01 02:03:65
  TRACK 131 AUDIO
    TITLE "6:cjc113_6760"
    INDEX 01 02:03:73
  TRACK 132 AUDIO
    TITLE "0:"
    INDEX 01 02:05:66
  TRACK 133 AUDIO
    TITLE "6:cjc113_6761"
    INDEX 01 02:06:32
  TRACK 134 AUDIO
    TITLE "0:"
    INDEX 01 02:07:53
  TRACK 135 AUDIO
    TITLE "6:cjc113_6762"
    INDEX 01 02:07:63
  TRACK 136 AUDIO
    TITLE "0:"
    INDEX 01 02:09:56
  TRACK 137 AUDIO
    TITLE "6:cjc113_6763"
    INDEX 01 02:10:24
  TRACK 138 AUDIO
    TITLE "0:"
    INDEX 01 02:11:51
  TRACK 139 AUDIO
    TITLE "6:cjc113_6764"
    INDEX 01 02:11:59
  TRACK 140 AUDIO
    TITLE "0:"
    INDEX 01 02:13:50
  TRACK 141 AUDIO
    TITLE "6:cjc113_6765"
    INDEX 01 02:14:18
  TRACK 142 AUDIO
    TITLE "0:"
    INDEX 01 02:15:33
  TRACK 143 AUDIO
    TITLE "6:cjc113_6766"
    INDEX 01 02:15:39
  TRACK 144 AUDIO
    TITLE "0:"
    INDEX 01 02:17:38
